<svg xmlns="http://www.w3.org/2000/svg" xmlns:xlink="http://www.w3.org/1999/xlink" version="1.1" x="0px" y="0px" viewBox="0 0 100 125" enable-background="new 0 0 100 100" xml:space="preserve"><g><g><g><g><path d="M75.54,75.97h1.62h10.41l-3.63-6.279l-2.66-4.61c1.16-1.53,2.16-3.14,2.989-4.83C86.03,56.67,87,52.76,87,48.67      c0-17.37-17.49-31.5-39-31.5c-21.5,0-39,14.13-39,31.5c0,9.271,4.98,17.61,12.89,23.38c2.33-7.3,6.51-13.41,11.98-17.42      l1.74-1.29l1.52,1.55c2.94,2.99,6.87,4.641,11.06,4.641c4.18,0,8.11-1.65,11.06-4.641l1.51-1.55l1.75,1.29      c6.16,4.53,10.7,11.73,12.78,20.29L75.54,75.97z M22.55,78.42C11.33,71.8,4,60.93,4,48.67c0-20.13,19.74-36.5,44-36.5      s44,16.37,44,36.5c0,5.98-1.74,11.63-4.83,16.61L96.23,80.97H68.6h-0.13c-4.26,1.87-8.93,3.17-13.87,3.79      c-2.149,0.271-4.35,0.41-6.6,0.41c-7.1,0-13.81-1.4-19.75-3.89c-1.99-0.83-3.89-1.79-5.69-2.851L22.55,78.42z M29.54,76.41      c5.5,2.399,11.79,3.76,18.46,3.76c2.23,0,4.42-0.16,6.55-0.45c0.351-0.04,0.69-0.1,1.03-0.149c3.92-0.62,7.62-1.721,11.02-3.23      l3.36-2.01c-1.74-5.88-4.81-10.88-8.83-14.4c-3.649,2.98-8.17,4.601-12.94,4.601c-4.78,0-9.29-1.62-12.94-4.601      c-4.09,3.601-7.26,8.87-8.96,14.891C27.34,75.4,28.42,75.92,29.54,76.41z"/><path d="M63.76,38.29c0,3.13-0.93,6.16-2.689,8.75c-0.69,1.01-1.48,1.93-2.37,2.74c-2.86,2.65-6.61,4.121-10.55,4.121      c-3.93,0-7.68-1.471-10.57-4.141c-0.86-0.78-1.65-1.7-2.35-2.71c-1.76-2.59-2.69-5.62-2.69-8.76c0-8.6,7-15.6,15.61-15.6      S63.76,29.69,63.76,38.29z M56.93,44.23c1.19-1.76,1.83-3.81,1.83-5.94c0-5.84-4.76-10.6-10.61-10.6s-10.61,4.76-10.61,10.6      c0,2.14,0.63,4.19,1.82,5.94c0.47,0.69,1.01,1.31,1.6,1.85c1.97,1.82,4.52,2.82,7.19,2.82s5.22-1,7.17-2.81      C55.93,45.54,56.47,44.92,56.93,44.23z"/></g></g></g></g>
</svg>
