<svg xmlns="http://www.w3.org/2000/svg" xmlns:xlink="http://www.w3.org/1999/xlink" version="1.1" x="0px" y="0px" viewBox="0 0 100 125" enable-background="new 0 0 100 100" xml:space="preserve"><g><rect x="-192" width="185" height="99"/><rect y="-36" width="100" height="30"/><text transform="matrix(1 0 0 1 66 -19.5)" fill="#000000" font-family="'MyriadPro-Regular'" font-size="2.4">http://thenounproject.com</text><text transform="matrix(1 0 0 1 7.166 -24.5)"><tspan x="0" y="0" fill="#000000" font-family="'MyriadPro-Regular'" font-size="6.1578">The Noun Project</tspan><tspan x="1.12" y="4.8" fill="#000000" font-family="'MyriadPro-Regular'" font-size="4">Icon Template</tspan></text><text transform="matrix(1 0 0 1 -178.5 10.5)" fill="#000000" font-family="'MyriadPro-Regular'" font-size="6.1578">Reminders</text><line fill="#000000" stroke="#FFFFFF" stroke-miterlimit="10" x1="8" y1="-14.5" x2="18" y2="-14.5"/><line fill="#000000" stroke="#FFFFFF" stroke-miterlimit="10" x1="-179" y1="16.5" x2="-162" y2="16.5"/><g><g><g><rect x="-170.802" y="31.318" fill="#000000" width="8.721" height="8.642"/><path fill="#000000" d="M-164.455,42.312h4.747v-4.703h-4.747V42.312z M-159.266,42.749h-5.63V37.17h5.63V42.749      L-159.266,42.749z M-166.221,44.062h8.279v-8.203h-8.279V44.062L-166.221,44.062z M-157.5,44.5h-9.163v-9.079h9.163V44.5      L-157.5,44.5z"/><polygon fill="#000000" points="-166.149,44.133 -166.292,43.991 -158.013,35.787 -157.871,35.929     "/></g></g></g><rect x="-179" y="58" fill="none" width="35" height="32.5"/><text transform="matrix(1 0 0 1 -179 60.1299)"><tspan x="0" y="0" fill="#000000" font-family="'MyriadPro-Regular'" font-size="3">Strokes</tspan><tspan x="0" y="5" fill="#000000" font-family="'MyriadPro-Regular'" font-size="2.4">Try to keep strokes at 4px</tspan><tspan x="0" y="10" fill="#000000" font-family="'MyriadPro-Regular'" font-size="2.4">Minimum stroke weight is 2px</tspan><tspan x="0" y="14.5" fill="#000000" font-family="'MyriadPro-Regular'" font-size="2.4">For thicker strokes use even </tspan><tspan x="0" y="17.5" fill="#000000" font-family="'MyriadPro-Regular'" font-size="2.4">numbers: 6px, 8px etc.</tspan><tspan x="0" y="22" fill="#000000" font-family="'MyriadPro-Regular'" font-size="2.4">Remember to expand strokes </tspan><tspan x="0" y="25" fill="#000000" font-family="'MyriadPro-Regular'" font-size="2.4">before saving as an SVG </tspan></text><rect x="-136.5" y="58" fill="none" width="35" height="32.5"/><text transform="matrix(1 0 0 1 -136.5 60.1299)"><tspan x="0" y="0" fill="#000000" font-family="'MyriadPro-Regular'" font-size="3">Size</tspan><tspan x="0" y="5" fill="#000000" font-family="'MyriadPro-Regular'" font-size="2.4">Cannot be wider or taller than </tspan><tspan x="0" y="8.5" fill="#000000" font-family="'MyriadPro-Regular'" font-size="2.4">100px (artboard size)</tspan><tspan x="0" y="13.5" fill="#000000" font-family="'MyriadPro-Regular'" font-size="2.4">Scale your icon to fill as much of </tspan><tspan x="0" y="16.5" fill="#000000" font-family="'MyriadPro-Regular'" font-size="2.4">the artboard as possible</tspan></text><rect x="-94" y="58" fill="none" width="35" height="32.5"/><text transform="matrix(1 0 0 1 -94 60.1299)"><tspan x="0" y="0" fill="#000000" font-family="'MyriadPro-Regular'" font-size="3">Ungroup</tspan><tspan x="0" y="5" fill="#000000" font-family="'MyriadPro-Regular'" font-size="2.4">If your design has more than one </tspan><tspan x="0" y="8" fill="#000000" font-family="'MyriadPro-Regular'" font-size="2.4">shape, make sure to ungroup</tspan></text><rect x="-50" y="58" fill="none" width="35" height="32.5"/><text transform="matrix(1 0 0 1 -50 60.1299)"><tspan x="0" y="0" fill="#000000" font-family="'MyriadPro-Regular'" font-size="3">Save as</tspan><tspan x="0" y="5" fill="#000000" font-family="'MyriadPro-Regular'" font-size="2.4">Save as .SVG and make sure “Use </tspan><tspan x="0" y="8" fill="#000000" font-family="'MyriadPro-Regular'" font-size="2.4">Artboards” is checked</tspan></text><text transform="matrix(1.0074 0 0 1 -125.542 30.5933)" fill="#000000" font-family="'MyriadPro-Regular'" font-size="2.5731">100px</text><text transform="matrix(1.0074 0 0 1 -41 39)" fill="#000000" font-family="'MyriadPro-Bold'" font-size="5.1462">.SVG</text><rect x="-126.514" y="34.815" fill="#000000" width="10.261" height="10.185"/><rect x="-126.477" y="31.766" fill="#000000" width="0.522" height="2.337"/><rect x="-116.813" y="31.766" fill="#000000" width="0.523" height="2.337"/><rect x="-127" y="32.337" fill="#000000" width="11.233" height="0.572"/><g><rect x="-83.805" y="33.844" fill="#000000" width="10.305" height="10.156"/><rect x="-76.809" y="28.707" fill="#000000" width="3.308" height="3.261"/></g><rect x="-178.5" y="22.5" fill="#000000" stroke="#FFFFFF" stroke-miterlimit="10" width="30" height="30"/><rect x="-136.5" y="22.5" fill="#000000" stroke="#FFFFFF" stroke-miterlimit="10" width="30" height="30"/><rect x="-93.5" y="22.5" fill="#000000" stroke="#FFFFFF" stroke-miterlimit="10" width="30" height="30"/><rect x="-49.5" y="22.5" fill="#000000" stroke="#FFFFFF" stroke-miterlimit="10" width="30" height="30"/></g><g><polygon points="100.077,55.324 100.077,87.244 98.136,87.244 98.136,75.442 83.61,75.442 83.61,87.244 81.67,87.244 81.67,73.502    98.136,73.502 98.136,55.324  "/><polygon points="0,55.009 0,86.929 1.941,86.929 1.941,75.128 16.467,75.128 16.467,86.929 18.408,86.929 18.408,73.187    1.941,73.187 1.941,55.009  "/><path d="M57.61,45.916c-7.124,0-16.597-0.945-16.597-9.117c0-5.112,7.29-9.116,16.597-9.116c8.095,0,13.505,3.7,15.247,7.249   l11.407,3.8l-12.075,3.163C66.921,44.683,64.281,45.916,57.61,45.916z M57.61,29.162c-8.195,0-15.118,3.498-15.118,7.638   c0,5.282,4.662,7.638,15.118,7.638c6.363,0,8.738-1.123,13.964-3.889l0.074-0.04l7.428-1.945l-7.304-2.434l-0.131-0.303   C70.254,32.617,65.272,29.162,57.61,29.162z"/><path d="M16.032,36.255l7.784-10.736c-1.184-1.114-3.9-3.901-3.9-5.985c0-5.467,7.817-9.75,17.796-9.75   c9.979,0,17.794,4.283,17.794,9.75s-7.816,9.75-17.794,9.75c-2.232,0-4.403-0.219-6.459-0.652L16.032,36.255z M37.711,11.263   c-8.845,0-16.317,3.788-16.317,8.271c0,1.396,2.389,4.009,3.895,5.328l0.507,0.445l-5.014,6.915l10.273-5.146l0.256,0.057   c2.027,0.446,4.18,0.673,6.398,0.673c8.844,0,16.316-3.788,16.316-8.271S46.556,11.263,37.711,11.263z"/><polygon points="83.219,61.128 83.219,63.413 64.091,63.413 64.091,87.329 61.806,87.329 61.806,63.413 33.166,63.413    33.166,87.329 30.885,87.329 30.885,63.413 17.191,63.413 17.191,61.128  "/><path d="M22.762,65.235v0.004c-0.056-0.004-0.111-0.004-0.17-0.004H22.762z"/><path d="M30.789,58.025c0,1.494-1.213,2.707-2.707,2.707H19.72v-0.003c-0.847,0.032-1.682-0.297-2.248-0.966l-3.475-4.118v9.59   h8.595c0.059,0,0.114,0,0.17,0.004c1.605,0.088,2.873,1.42,2.873,3.039v16.007c0,1.679-1.36,3.044-3.042,3.044   c-1.679,0-3.042-1.365-3.042-3.044V72.844H8.596v-0.037c-2.984,0-5.401-2.418-5.401-5.4v-19.21   c0.003-2.984,2.417-5.397,5.401-5.397c1.494,0,2.85,0.606,3.822,1.589l0.026-0.021l9.246,10.958h6.392   C29.576,55.324,30.789,56.532,30.789,58.025z"/><path d="M98.306,41.863v0.003c-0.055-0.003-0.11-0.003-0.17-0.003H98.306z"/><path d="M69.336,58.16c0,1.493,1.216,2.706,2.705,2.706h8.367v-0.005c0.846,0.034,1.679-0.295,2.244-0.964l3.479-4.126v9.597   h-8.599c-0.061,0-0.115,0-0.171,0.004c-1.6,0.089-2.872,1.42-2.872,3.039c0,0.053,0,0.104,0.003,0.155v15.853   c0,1.678,1.36,3.043,3.044,3.043c1.677,0,3.042-1.365,3.042-3.043V72.977h10.954v-0.037c2.98,0,5.396-2.418,5.396-5.4V48.33   c0-2.98-2.416-5.398-5.396-5.398c-1.494,0-2.851,0.606-3.827,1.589l-0.025-0.022l-9.242,10.955h-6.396   C70.552,55.454,69.336,56.666,69.336,58.16z"/><circle cx="8.596" cy="36.8" r="4.89"/><circle cx="91.181" cy="36.8" r="4.89"/></g><text x="0" y="115" fill="#000000" font-size="5px" font-weight="bold" font-family="'Helvetica Neue', Helvetica, Arial-Unicode, Arial, Sans-serif">Created by Erin Gillaspy</text><text x="0" y="120" fill="#000000" font-size="5px" font-weight="bold" font-family="'Helvetica Neue', Helvetica, Arial-Unicode, Arial, Sans-serif">from the Noun Project</text></svg>