<svg xmlns="http://www.w3.org/2000/svg" xmlns:xlink="http://www.w3.org/1999/xlink" version="1.1" x="0px" y="0px" viewBox="0 0 100 125" enable-background="new 0 0 100 100" xml:space="preserve"><g><g><g><g><path d="M56.58,79.07c4.24-0.67,8.23-1.91,11.859-3.601h9.721h10.41l-3.631-6.279l-2.66-4.61c1.16-1.53,2.16-3.14,2.99-4.83      c1.76-3.58,2.73-7.49,2.73-11.58c0-17.37-17.49-31.5-39-31.5c-21.5,0-39,14.13-39,31.5s17.5,31.5,39,31.5      C51.59,79.67,54.13,79.46,56.58,79.07z M69.471,80.47c-6.121,2.681-13.08,4.2-20.471,4.2c-24.26,0-44-16.38-44-36.5      c0-20.13,19.74-36.5,44-36.5s44,16.37,44,36.5c0,5.98-1.74,11.63-4.83,16.61L97.23,80.47H69.471z"/></g></g></g></g><g><path d="M28.251,60.833c-5.101,0-9.25-4.149-9.25-9.25c0-5.1,4.149-9.249,9.25-9.249s9.25,4.149,9.25,9.249   C37.501,56.684,33.352,60.833,28.251,60.833z M28.251,47.334c-2.343,0-4.25,1.906-4.25,4.249c0,2.344,1.907,4.25,4.25,4.25   s4.25-1.906,4.25-4.25C32.501,49.24,30.594,47.334,28.251,47.334z"/></g><g><path d="M48.767,60.833c-5.101,0-9.25-4.149-9.25-9.25c0-5.1,4.149-9.249,9.25-9.249s9.25,4.149,9.25,9.249   C58.017,56.684,53.868,60.833,48.767,60.833z M48.767,47.334c-2.343,0-4.25,1.906-4.25,4.249c0,2.344,1.907,4.25,4.25,4.25   s4.25-1.906,4.25-4.25C53.017,49.24,51.11,47.334,48.767,47.334z"/></g><g><path d="M69.284,60.833c-5.101,0-9.25-4.149-9.25-9.25c0-5.1,4.149-9.249,9.25-9.249c5.1,0,9.25,4.149,9.25,9.249   C78.533,56.684,74.384,60.833,69.284,60.833z M69.284,47.334c-2.343,0-4.25,1.906-4.25,4.249c0,2.344,1.907,4.25,4.25,4.25   s4.25-1.906,4.25-4.25C73.533,49.24,71.627,47.334,69.284,47.334z"/></g><text x="0" y="115" fill="#000000" font-size="5px" font-weight="bold" font-family="'Helvetica Neue', Helvetica, Arial-Unicode, Arial, Sans-serif">Created by Martha Ormiston</text><text x="0" y="120" fill="#000000" font-size="5px" font-weight="bold" font-family="'Helvetica Neue', Helvetica, Arial-Unicode, Arial, Sans-serif">from the Noun Project</text></svg>