<?xml version="1.0" encoding="UTF-8" standalone="no"?>
<svg width="101px" height="101px" viewBox="0 0 101 101" version="1.1" xmlns="http://www.w3.org/2000/svg" xmlns:xlink="http://www.w3.org/1999/xlink" xmlns:sketch="http://www.bohemiancoding.com/sketch/ns">
    <!-- Generator: Sketch 3.3.2 (12043) - http://www.bohemiancoding.com/sketch -->
    <title>Path 3</title>
    <desc>Created with Sketch.</desc>
    <defs></defs>
    <g id="Page-1" stroke="none" stroke-width="1" fill="none" fill-rule="evenodd" sketch:type="MSPage">
        <g id="Path-3" sketch:type="MSLayerGroup" transform="translate(1.000000, 1.000000)" stroke="#FFFFFF" fill="#338FFB">
            <path d="M44.8571697,98.7649043 C46.4709998,98.9238693 48.1076168,99.0052425 49.7632396,99.0052425 C50.6601039,99.0052425 51.551391,98.9813637 52.4364998,98.9342073 L55.6165932,99.0052425 L55.6165932,98.6624004 C80.1651919,95.7670691 99.2076841,74.8877397 99.2076841,49.560798 C99.2076841,22.2533854 77.0706522,0.116353566 49.7632396,0.116353566 C22.455827,0.116353566 0.318795163,22.2533854 0.318795163,49.560798 C0.318795163,74.3048879 18.4949181,94.8037168 42.2239799,98.4341004 L42.2239946,98.7060859 L44.8571697,98.7649043 Z M44.8571697,98.7649043 C44.5178084,98.7314767 44.1794548,98.694618 43.8421439,98.6543634 C43.3000136,98.5896657 42.7605769,98.5161961 42.2239799,98.4341004 L42.2239946,63.1224803 L33.2740047,63.1224803 L33.2666593,50.6033121 L42.5725655,50.6033121 C42.5725655,50.6033121 42.5725656,42.3385756 43.3333328,39.4423684 C44.0941,36.5461613 44.9201123,34.2806844 48.8888884,31.2274649 C52.0432578,28.8007766 55.4522977,27.400706 58.7025476,26.63577 C66.6523102,24.7648185 73.6521285,26.6934903 73.6521285,26.6934903 L73.2574822,39.4356905 L55.7140862,39.4423681 L55.483709,51.1829279 L73.093881,51.4059598 L73.2861959,63.7328131 L55.6165932,63.4430052 L55.6165932,98.6624004 C54.5662878,98.7862764 53.5059033,98.8772321 52.4364998,98.9342073 L44.8571697,98.7649043 Z" sketch:type="MSShapeGroup"></path>
        </g>
    </g>
</svg>