<?xml version="1.0" encoding="UTF-8" standalone="no"?>
<svg width="41px" height="30px" viewBox="-10 0 31 43" version="1.1" xmlns="http://www.w3.org/2000/svg" xmlns:xlink="http://www.w3.org/1999/xlink" xmlns:sketch="http://www.bohemiancoding.com/sketch/ns">
    <!-- Generator: Sketch 3.3.2 (12043) - http://www.bohemiancoding.com/sketch -->
    <title>Fill 91</title>
    <desc>Created with Sketch.</desc>
    <defs></defs>
    <g id="Page-1" stroke="none" stroke-width="1" fill="none" fill-rule="evenodd" sketch:type="MSPage">
        <g id="outline" sketch:type="MSLayerGroup" transform="translate(-125.000000, -701.000000)" fill="#5B5B58">
            <path d="M139.686,722.927 C145.496,722.927 150.222,718.201 150.222,712.394 C150.222,706.586 145.496,701.86 139.686,701.86 C133.879,701.86 129.154,706.586 129.154,712.394 C129.154,718.201 133.879,722.927 139.686,722.927 L139.686,722.927 Z M139.686,703.36 C144.669,703.36 148.722,707.413 148.722,712.394 C148.722,717.374 144.669,721.427 139.686,721.427 C134.706,721.427 130.654,717.374 130.654,712.394 C130.654,707.413 134.706,703.36 139.686,703.36 L139.686,703.36 Z M155.34,742.169 C154.678,739.284 152.332,730.717 150.586,728.444 C147.85,723.886 142.102,724.46 141.939,724.481 L137.252,724.481 C137.058,724.485 132.421,724.356 129.703,728.261 C128.193,730.432 125.98,738.723 125.203,742.172 C125.111,742.576 125.365,742.977 125.769,743.068 C126.174,743.162 126.575,742.906 126.665,742.502 C127.483,738.879 129.643,730.975 130.935,729.117 C133.174,725.899 137.165,725.983 137.226,725.981 L142.019,725.977 C142.071,725.968 147.093,725.489 149.32,729.25 C149.338,729.279 149.357,729.308 149.378,729.334 C150.745,731.06 153.034,738.825 153.878,742.505 C153.957,742.852 154.267,743.087 154.608,743.087 C154.664,743.087 154.72,743.081 154.776,743.068 C155.18,742.976 155.433,742.573 155.34,742.169 L155.34,742.169 Z" id="Fill-91" sketch:type="MSShapeGroup"></path>
        </g>
    </g>
</svg>
