<?xml version="1.0" encoding="UTF-8" standalone="no"?>
<svg width="47px" height="30px" viewBox="-10 0 47 46" version="1.1" xmlns="http://www.w3.org/2000/svg" xmlns:xlink="http://www.w3.org/1999/xlink" xmlns:sketch="http://www.bohemiancoding.com/sketch/ns">
    <!-- Generator: Sketch 3.3.2 (12043) - http://www.bohemiancoding.com/sketch -->
    <title>Fill 96</title>
    <desc>Created with Sketch.</desc>
    <defs></defs>
    <g id="Page-1" stroke="none" stroke-width="1" fill="none" fill-rule="evenodd" sketch:type="MSPage">
        <g id="outline" sketch:type="MSLayerGroup" transform="translate(-726.000000, -625.000000)" fill="#5B5B58">
            <path d="M757.721,642.069 L731.547,642.075 C728.683,642.438 726.523,644.879 726.523,647.753 L726.523,664.731 C726.523,667.902 729.102,670.481 732.273,670.481 L757.096,670.481 C760.263,670.481 762.841,667.902 762.841,664.731 L762.841,647.753 C762.841,644.879 760.68,642.437 757.721,642.069 L757.721,642.069 Z M761.341,664.731 C761.341,667.075 759.435,668.981 757.096,668.981 L732.273,668.981 C729.929,668.981 728.023,667.075 728.023,664.731 L728.023,647.753 C728.023,645.633 729.619,643.832 731.642,643.569 L757.627,643.563 C759.744,643.831 761.341,645.633 761.341,647.753 L761.341,664.731 L761.341,664.731 Z M731.625,640.253 C732.037,640.276 732.383,639.935 732.393,639.519 C732.531,633.373 737.816,626.499 744.683,626.499 C751.554,626.499 756.837,633.373 756.971,639.519 C756.978,639.928 757.312,640.253 757.721,640.253 L757.736,640.253 C758.15,640.244 758.478,639.9 758.471,639.486 C758.32,632.634 752.623,624.999 744.683,624.999 C736.75,624.999 731.047,632.634 730.893,639.486 C730.883,639.9 731.211,640.243 731.625,640.253 L731.625,640.253 Z M744.683,649.694 C742.477,649.694 740.682,651.491 740.682,653.7 C740.682,655.179 741.479,656.502 742.75,657.201 L742.75,661.253 C742.75,662.318 743.617,663.185 744.683,663.185 C745.75,663.185 746.619,662.318 746.619,661.253 L746.619,657.199 C747.891,656.502 748.687,655.179 748.687,653.7 C748.687,651.491 746.892,649.694 744.683,649.694 L744.683,649.694 Z M745.596,656.025 C745.308,656.138 745.119,656.415 745.119,656.724 L745.119,661.253 C745.119,661.491 744.924,661.685 744.683,661.685 C744.439,661.685 744.25,661.495 744.25,661.253 L744.25,656.726 C744.25,656.417 744.061,656.141 743.774,656.027 C742.807,655.647 742.182,654.733 742.182,653.7 C742.182,652.318 743.304,651.194 744.683,651.194 C746.065,651.194 747.187,652.318 747.187,653.7 C747.187,654.733 746.562,655.646 745.596,656.025 L745.596,656.025 Z" id="Fill-96" sketch:type="MSShapeGroup"></path>
        </g>
    </g>
</svg>
